<?xml version="1.0" standalone="no"?>
<!DOCTYPE svg PUBLIC "-//W3C//DTD SVG 20010904//EN"
 "http://www.w3.org/TR/2001/REC-SVG-20010904/DTD/svg10.dtd">
<svg version="1.0" xmlns="http://www.w3.org/2000/svg"
 width="630.000000pt" height="630.000000pt" viewBox="0 0 630.000000 630.000000"
 preserveAspectRatio="xMidYMid meet">
<metadata>
Created by potrace 1.14, written by Peter Selinger 2001-2017
</metadata>
<g transform="translate(0.000000,630.000000) scale(0.100000,-0.100000)"
fill="#000000" stroke="none">
<path d="M2905 5699 c-225 -34 -278 -43 -369 -65 -463 -115 -867 -344 -1198
-681 -130 -133 -165 -173 -261 -305 -140 -194 -252 -403 -331 -620 -103 -285
-144 -510 -153 -833 -5 -198 -3 -230 34 -465 166 -1069 1055 -1950 2123 -2104
63 -9 145 -21 182 -26 90 -13 354 -13 453 1 320 43 576 107 742 184 17 8 34
15 38 15 12 0 242 118 311 160 310 190 603 469 802 768 191 285 310 576 388
942 36 170 54 549 34 715 -37 308 -91 523 -190 760 -311 743 -979 1309 -1765
1494 -77 19 -193 38 -360 60 -93 13 -393 12 -480 0z m636 -88 c411 -69 775
-222 1095 -462 409 -307 713 -722 872 -1194 55 -163 82 -271 109 -435 25 -152
25 -604 0 -745 -48 -275 -114 -480 -227 -711 -239 -486 -608 -868 -1080 -1117
-261 -138 -483 -210 -810 -263 -145 -24 -549 -24 -705 0 -107 16 -135 21 -260
52 -413 103 -813 332 -1126 644 -397 396 -630 848 -726 1410 -25 150 -25 570
0 720 49 286 113 486 234 732 386 787 1157 1317 2023 1392 118 10 489 -4 601
-23z"/>
<path d="M2885 5539 c-561 -69 -1051 -307 -1444 -701 -383 -383 -619 -877
-681 -1423 -15 -130 -12 -432 4 -565 69 -544 308 -1026 700 -1413 381 -377
880 -613 1426 -677 110 -13 400 -13 515 0 701 80 1303 433 1710 1004 288 403
437 878 437 1386 0 231 -26 433 -83 640 -137 500 -446 954 -869 1276 -339 258
-757 424 -1195 474 -106 12 -419 11 -520 -1z m471 -124 c14 -4 26 -41 49 -155
9 -47 23 -103 29 -125 12 -39 13 -38 25 70 7 61 16 128 20 150 l7 40 55 -3
c29 -2 58 -7 63 -12 9 -9 3 -76 -28 -350 -8 -69 -20 -168 -26 -220 -15 -131
-16 -133 -52 -126 -17 3 -46 6 -64 6 -38 0 -50 15 -63 82 -5 24 -19 90 -32
148 -27 121 -29 117 -49 -75 -7 -60 -15 -114 -20 -118 -11 -12 -118 3 -123 17
-3 7 1 62 8 122 8 60 19 150 24 199 30 248 43 350 47 357 5 7 101 2 130 -7z
m-591 -76 c-1 -47 -13 -157 -31 -269 -5 -32 3 -46 106 -184 61 -81 109 -153
107 -160 -5 -14 -134 -49 -148 -41 -5 4 -35 42 -66 86 -30 44 -57 78 -60 76
-2 -3 7 -43 20 -91 20 -70 22 -88 11 -97 -18 -15 -110 -38 -121 -30 -5 3 -22
53 -38 111 -59 224 -74 280 -110 413 -20 76 -35 140 -33 142 14 12 51 24 90
30 l46 7 17 -59 c9 -32 22 -76 30 -98 l13 -40 2 35 c1 19 7 71 13 114 l12 79
60 17 c33 10 65 17 70 15 6 -1 10 -26 10 -56z m1350 -118 c50 -29 75 -85 75
-169 0 -90 -20 -163 -72 -265 -69 -133 -176 -227 -259 -227 -44 0 -96 28 -126
67 -24 32 -28 47 -32 119 -3 94 12 158 65 264 97 196 233 278 349 211z m-1917
-78 c36 -94 52 -145 47 -152 -2 -5 -25 -11 -51 -14 -25 -2 -53 -12 -62 -21
-55 -54 64 -276 147 -276 30 0 64 31 76 71 11 33 31 21 90 -52 65 -81 66 -97
10 -154 -117 -116 -263 -72 -388 117 -84 128 -117 214 -117 306 1 123 73 201
186 202 47 0 52 -2 62 -27z m2401 -234 c90 -79 105 -102 105 -164 0 -59 -24
-110 -83 -177 -40 -45 -127 -98 -162 -98 -12 0 -30 -33 -65 -122 -27 -67 -53
-123 -59 -125 -5 -1 -32 17 -60 41 l-50 44 34 78 c56 132 52 139 -28 55 l-70
-75 -45 38 c-25 20 -46 44 -46 52 0 8 64 88 143 178 78 89 176 202 217 249 41
48 80 87 87 87 6 0 43 -27 82 -61z m-2756 -239 c199 -194 237 -249 237 -342 0
-45 -5 -59 -32 -92 -35 -42 -81 -66 -128 -66 -51 0 -138 48 -214 119 -129 120
-296 285 -296 294 0 13 60 85 76 91 9 4 70 -48 162 -137 195 -189 222 -208
252 -172 22 27 -3 60 -170 222 -88 86 -160 160 -160 166 0 15 71 87 86 87 7 0
91 -76 187 -170z m1551 -90 c207 -35 391 -108 570 -227 120 -80 306 -261 383
-374 112 -163 195 -365 234 -562 29 -146 28 -393 -1 -537 -115 -566 -523 -995
-1085 -1139 -71 -18 -257 -41 -335 -41 -102 0 -274 25 -390 56 -387 105 -738
399 -915 768 -113 235 -160 499 -136 758 19 200 59 338 151 523 280 562 905
879 1524 775z m1622 -118 c70 -106 81 -139 65 -193 -29 -95 -172 -198 -282
-202 l-53 -2 -76 -102 c-41 -56 -81 -102 -87 -103 -13 0 -83 97 -83 116 0 6
28 46 61 88 34 42 60 79 58 81 -3 2 -40 -18 -83 -45 -43 -27 -83 -46 -90 -44
-12 5 -66 90 -66 105 0 5 80 62 178 126 97 64 224 147 281 184 57 38 109 69
115 69 6 0 34 -35 62 -78z m-3183 -432 c10 -9 -39 -110 -53 -110 -6 0 -55 23
-111 50 -55 28 -104 48 -109 45 -12 -7 -40 -65 -40 -81 0 -8 45 -36 99 -64 55
-27 102 -54 105 -59 5 -8 -33 -94 -49 -109 -5 -5 -575 286 -594 303 -11 11
-10 20 10 60 13 25 27 49 31 51 4 3 52 -18 107 -46 56 -27 104 -50 109 -50 8
0 56 90 50 95 -2 1 -49 26 -105 55 -57 28 -103 56 -103 61 0 5 11 32 25 60
l26 50 297 -151 c163 -84 301 -155 305 -160z m3437 -35 c12 -30 20 -60 17 -67
-3 -7 -76 -41 -163 -75 -88 -34 -228 -89 -312 -122 -84 -33 -159 -58 -166 -55
-13 5 -46 87 -46 115 0 9 12 21 28 27 169 66 360 140 462 181 69 27 132 50
141 50 11 1 24 -18 39 -54z m-4168 -277 c43 -18 78 -36 78 -41 0 -4 -11 -23
-25 -41 -47 -61 -24 -109 65 -141 64 -23 159 -29 190 -13 41 22 50 53 33 105
-8 24 -13 47 -10 50 3 3 48 2 101 -2 94 -7 95 -7 105 -38 17 -48 13 -117 -10
-164 -41 -84 -165 -126 -313 -104 -146 22 -246 59 -315 117 -87 73 -95 198
-18 282 11 12 25 22 31 22 5 0 45 -14 88 -32z m4209 -32 c83 -35 117 -124 89
-228 -6 -21 -17 -44 -25 -51 -15 -16 -175 -31 -188 -18 -5 5 -1 31 8 59 19 58
17 95 -6 100 -13 2 -24 -15 -43 -65 -14 -38 -33 -79 -42 -91 -44 -63 -199
-107 -289 -82 -54 15 -99 49 -120 91 -33 63 -8 211 38 223 33 8 166 10 174 3
3 -4 -2 -24 -11 -45 -24 -52 -19 -127 8 -127 15 0 25 15 42 61 28 79 48 109
91 135 76 47 206 64 274 35z m-3910 -733 c23 -19 48 -29 82 -33 40 -4 54 -11
70 -33 20 -26 21 -32 10 -142 -11 -106 -11 -118 6 -148 16 -27 17 -38 7 -71
-6 -21 -22 -47 -36 -58 -24 -17 -30 -18 -107 -4 -45 8 -91 12 -101 9 -20 -5
-162 46 -162 58 0 4 8 10 18 12 14 4 14 5 -3 6 -11 1 -28 13 -39 27 -19 27
-19 34 0 162 4 25 3 42 -3 42 -11 0 -25 -83 -27 -158 -3 -68 -45 -77 -88 -18
-62 83 -63 127 -2 212 40 55 50 64 77 64 18 0 52 9 76 20 24 11 50 20 57 20 8
0 38 13 67 30 29 16 55 30 59 30 3 0 21 -12 39 -27z m3626 -3 c29 -16 59 -30
67 -30 7 0 33 -9 57 -20 24 -11 58 -20 76 -20 28 0 38 -8 79 -66 44 -61 46
-68 40 -112 -11 -82 -86 -161 -123 -131 -8 7 -11 19 -8 28 8 21 -17 181 -28
181 -6 0 -7 -19 -3 -42 18 -118 18 -144 4 -159 -9 -8 -18 -24 -22 -35 -7 -23
-138 -78 -168 -71 -10 3 -53 -1 -95 -8 -79 -14 -96 -12 -125 13 -26 22 -34 96
-13 128 15 23 15 36 6 107 -16 116 -14 150 10 181 16 21 29 26 63 26 33 0 52
7 81 30 21 17 40 30 43 30 3 0 29 -13 59 -30z m-3143 -697 l46 -67 -42 -45
c-151 -159 -453 -461 -462 -461 -12 1 -76 90 -76 105 0 5 19 28 42 52 l41 42
-28 41 c-15 22 -32 40 -37 40 -5 0 -31 -11 -58 -25 l-49 -25 -19 20 c-11 12
-28 36 -38 55 -16 31 -17 36 -4 48 8 8 103 53 210 102 327 148 344 155 375
170 17 8 35 15 41 15 6 0 32 -30 58 -67z m2808 21 c68 -27 205 -121 246 -170
62 -75 82 -121 82 -191 0 -57 -4 -67 -46 -130 -82 -121 -40 -132 -362 97 -239
170 -281 203 -273 218 25 46 110 149 140 169 42 29 148 32 213 7z m-2571 -296
c89 -76 104 -99 104 -161 0 -140 -160 -317 -286 -317 -33 0 -57 7 -82 25 l-37
24 -30 -32 c-17 -18 -40 -47 -53 -64 -12 -18 -29 -33 -37 -33 -8 0 -35 18 -60
39 -42 37 -44 40 -29 58 9 10 107 129 218 266 111 136 209 247 216 247 8 0 43
-24 76 -52z m2208 -19 c28 -33 51 -66 51 -72 0 -7 -27 -34 -60 -60 -33 -27
-60 -51 -60 -54 0 -14 23 -43 34 -43 7 0 31 16 53 35 23 19 46 35 51 35 8 0
63 -60 110 -122 14 -17 6 -27 -67 -85 -21 -17 -22 -21 -10 -41 20 -31 35 -28
95 23 28 25 59 45 66 45 20 0 119 -126 112 -142 -7 -16 -219 -188 -232 -188
-5 0 -45 44 -89 98 -43 53 -141 173 -216 265 -75 93 -137 172 -137 177 0 13
219 190 235 190 7 0 36 -27 64 -61z m-266 -481 c94 -382 92 -372 75 -384 -27
-21 -141 -65 -147 -57 -3 5 -74 110 -157 233 -83 124 -170 252 -193 284 -22
33 -41 63 -41 68 0 10 120 69 129 63 4 -2 52 -73 106 -158 55 -85 101 -151
103 -147 2 5 -15 73 -37 152 -61 221 -61 209 -4 235 92 42 80 62 166 -289z
m-1578 256 c97 -47 120 -81 119 -174 -2 -109 -69 -242 -150 -297 -40 -28 -114
-34 -152 -14 -16 8 -23 8 -29 -1 -10 -16 -52 -107 -60 -130 -3 -10 -11 -18
-18 -18 -14 0 -97 35 -107 45 -7 7 6 38 112 270 50 109 68 149 95 210 70 161
68 157 92 150 12 -3 56 -22 98 -41z m399 -124 c135 -21 169 -59 174 -195 4
-105 -18 -181 -68 -234 l-30 -31 25 -127 c14 -70 25 -131 25 -136 0 -13 -128
-1 -144 12 -7 6 -19 53 -26 106 -13 92 -25 118 -34 73 -2 -13 -9 -52 -16 -88
-6 -36 -14 -68 -16 -72 -7 -10 -107 3 -121 16 -9 8 -10 27 -3 76 21 139 40
268 50 330 6 36 17 112 25 169 9 57 18 108 21 113 3 5 20 6 37 3 18 -3 63 -10
101 -15z m561 -9 c103 -48 166 -179 181 -374 11 -145 -25 -260 -99 -321 -32
-25 -47 -30 -90 -30 -143 0 -247 182 -247 431 0 116 22 191 72 248 56 64 113
78 183 46z"/>
<path d="M3943 5038 c-65 -68 -116 -214 -95 -269 38 -97 167 43 198 214 8 46
-15 87 -49 87 -13 0 -37 -14 -54 -32z"/>
<path d="M4452 4700 c-36 -42 -42 -53 -32 -65 19 -23 49 -18 81 14 30 31 38
68 17 89 -18 18 -19 17 -66 -38z"/>
<path d="M2920 4480 c-130 -24 -267 -72 -378 -131 -112 -59 -202 -124 -202
-144 0 -8 -8 -15 -18 -15 -26 0 -90 -58 -176 -158 -159 -188 -250 -371 -302
-604 -25 -116 -30 -365 -9 -489 45 -270 163 -510 346 -703 96 -101 105 -103
185 -22 27 28 77 71 110 95 32 25 62 48 67 51 7 6 -30 87 -63 138 -16 25 -40
28 -70 10 -10 -7 -21 -10 -24 -7 -9 9 16 71 44 109 19 27 25 46 23 83 0 27 -3
50 -5 52 -2 3 -21 0 -42 -6 -46 -13 -53 -7 -37 27 10 23 9 28 -9 41 -11 8 -20
25 -20 37 0 14 -10 30 -25 40 -20 13 -25 25 -25 56 0 35 -6 46 -44 83 -67 64
-89 137 -41 137 33 0 32 16 -2 32 -30 15 -41 36 -21 42 86 27 112 42 134 78
24 37 24 43 18 157 -4 65 -4 134 0 154 4 19 30 71 58 114 28 43 80 131 115
197 76 143 108 184 171 225 26 17 74 60 105 95 62 71 115 101 229 131 79 21
130 16 208 -22 30 -14 82 -29 116 -33 85 -10 144 -43 216 -119 34 -36 79 -85
101 -109 22 -24 46 -41 54 -38 9 4 13 -4 13 -24 0 -22 5 -29 23 -32 18 -2 22
-10 23 -38 0 -19 7 -48 16 -65 36 -69 70 -196 83 -310 8 -66 24 -146 35 -179
19 -53 20 -73 15 -200 -6 -157 4 -195 57 -225 24 -14 29 -13 68 13 54 35 73
29 64 -21 -9 -55 -28 -80 -95 -123 -32 -21 -84 -61 -115 -89 -45 -42 -58 -61
-70 -104 -7 -28 -14 -61 -14 -72 0 -34 97 -120 186 -164 44 -22 94 -51 110
-64 34 -29 102 -59 115 -52 20 13 123 181 163 266 48 104 76 187 103 299 25
105 25 432 1 540 -62 271 -181 492 -363 676 -108 109 -156 147 -179 138 -11
-4 -16 -1 -16 13 0 33 -178 132 -332 184 -207 69 -469 88 -678 49z m-410 -344
c0 -3 -4 -8 -10 -11 -5 -3 -10 -1 -10 4 0 6 5 11 10 11 6 0 10 -2 10 -4z
m1855 -446 c3 -5 1 -10 -4 -10 -6 0 -11 5 -11 10 0 6 2 10 4 10 3 0 8 -4 11
-10z m-266 -64 c8 -10 8 -16 -2 -24 -17 -14 -42 2 -34 22 8 20 21 20 36 2z
m61 -61 c0 -8 -7 -15 -15 -15 -8 0 -15 7 -15 15 0 8 7 15 15 15 8 0 15 -7 15
-15z m-2255 -475 c3 -5 1 -10 -4 -10 -6 0 -11 5 -11 10 0 6 2 10 4 10 3 0 8
-4 11 -10z m288 -64 c9 -22 -18 -40 -33 -22 -6 9 -9 20 -5 26 9 15 32 12 38
-4z m-63 -61 c0 -8 -6 -15 -14 -15 -17 0 -28 14 -19 24 12 12 33 6 33 -9z
m236 -662 c-10 -10 -19 5 -10 18 6 11 8 11 12 0 2 -7 1 -15 -2 -18z m-86 -83
c0 -5 -4 -10 -10 -10 -5 0 -10 5 -10 10 0 6 5 10 10 10 6 0 10 -4 10 -10z"/>
<path d="M3050 4341 c-14 -5 -51 -17 -82 -26 -69 -21 -109 -49 -150 -105 -17
-22 -57 -59 -89 -81 -67 -45 -117 -109 -178 -228 -24 -45 -67 -122 -97 -169
-72 -114 -78 -141 -66 -272 9 -96 8 -109 -10 -153 -12 -26 -34 -59 -50 -72
-24 -20 -27 -26 -14 -31 26 -10 18 -30 -25 -67 l-40 -35 44 -46 c25 -25 57
-50 71 -56 33 -12 33 -28 1 -40 -30 -12 -31 -21 -5 -38 14 -9 20 -21 18 -40
-3 -25 0 -27 40 -30 33 -2 42 -7 42 -21 0 -10 9 -21 19 -24 20 -5 25 -29 37
-190 4 -57 11 -90 19 -93 7 -3 18 -25 24 -49 8 -30 21 -51 42 -66 l32 -22 -5
76 c-3 53 -1 77 6 77 13 -1 80 -95 90 -127 11 -35 198 -179 217 -167 21 13
237 16 260 4 16 -9 28 -9 50 1 51 20 45 0 -16 -61 -53 -53 -66 -60 -110 -66
-27 -3 -62 -15 -77 -25 -45 -32 -69 -21 -88 38 -7 19 -8 6 -4 -42 6 -70 16
-96 28 -76 4 7 43 11 96 11 136 0 189 -35 88 -59 -68 -15 -243 -32 -263 -25
-27 11 -125 182 -142 249 l-7 30 -4 -35 c-4 -37 21 -146 45 -192 11 -23 11
-28 0 -28 -20 0 -106 59 -122 84 -7 12 -18 79 -24 154 -12 143 -15 158 -34
142 -7 -6 -43 -34 -82 -62 -75 -56 -195 -174 -195 -192 0 -20 203 -142 305
-184 195 -78 474 -127 606 -104 38 7 85 12 104 12 40 0 164 29 255 60 86 29
206 90 305 154 78 51 255 209 255 227 0 5 -8 13 -17 16 -10 4 -40 23 -68 44
-27 20 -84 53 -125 74 -41 20 -91 52 -112 72 -20 19 -41 32 -47 29 -6 -4 -29
5 -52 20 -38 24 -41 28 -26 39 9 7 17 18 17 26 0 13 -113 -98 -183 -180 -20
-24 -37 -42 -37 -40 2 30 42 116 56 124 29 15 88 58 96 70 13 18 9 55 -6 55
-13 0 -13 5 0 37 14 33 14 38 0 49 -21 15 -20 20 5 55 16 23 25 28 46 23 24
-6 25 -6 12 17 -7 13 -14 29 -14 34 -1 6 -7 24 -14 40 -18 40 -20 157 -3 162
8 3 12 -6 12 -27 0 -17 7 -45 16 -61 14 -28 16 -29 28 -13 12 16 14 16 24 -2
16 -29 25 -10 17 37 -4 25 -17 51 -32 65 -23 21 -24 26 -14 77 5 31 17 73 26
94 31 70 34 91 19 104 -8 6 -14 8 -15 3 -3 -25 -17 48 -18 92 -1 59 -11 114
-20 114 -5 0 -26 -33 -70 -115 l-16 -30 -3 26 c-2 14 10 59 26 100 44 112 58
190 42 242 -19 67 -80 209 -102 239 -33 47 -40 35 -33 -54 8 -94 1 -94 -35 -4
-28 69 -91 158 -148 207 -52 45 -53 59 -4 59 35 1 36 1 17 16 -17 13 -18 16
-5 24 8 6 21 8 28 5 41 -17 47 -18 37 -7 -25 26 -90 52 -138 56 -30 2 -79 17
-117 35 -72 34 -132 45 -170 32z m154 -733 c51 -66 57 -70 83 -63 20 5 24 3
20 -8 -4 -11 3 -13 36 -10 51 5 72 -7 62 -36 -6 -21 -7 -21 -41 5 -19 15 -34
22 -34 17 0 -5 11 -15 25 -21 28 -13 31 -29 12 -56 -10 -14 -25 -16 -76 -14
-65 3 -71 7 -86 53 l-7 20 -8 -20 c-15 -35 -11 -84 15 -177 14 -49 25 -98 23
-109 -2 -10 2 -17 7 -16 6 1 9 21 7 43 -2 30 2 43 12 47 9 4 13 13 10 22 -5
11 1 15 19 15 14 0 29 5 32 10 9 15 25 12 25 -5 0 -8 7 -15 15 -15 23 0 30 4
29 15 -2 19 35 14 50 -7 8 -11 26 -26 41 -34 26 -13 27 -13 22 7 -3 12 0 22 9
26 8 3 14 11 14 19 0 8 6 11 15 8 24 -9 18 21 -10 54 -31 37 -31 42 1 42 26 0
26 0 9 26 -23 36 -14 39 18 6 32 -34 45 -108 49 -299 2 -115 0 -134 -16 -151
-13 -15 -17 -33 -14 -69 2 -39 0 -48 -14 -51 -12 -2 -18 3 -18 15 0 10 -5 25
-10 33 -8 11 -10 2 -10 -35 2 -155 -1 -207 -12 -229 -23 -51 -56 -22 -79 71
-8 33 -17 49 -25 46 -7 -2 -20 7 -29 20 -9 14 -54 49 -100 78 -46 30 -84 57
-85 62 0 4 16 7 36 7 24 0 34 4 31 13 -4 12 -28 13 -85 1 -26 -5 -44 -1 -74
16 -30 17 -43 19 -51 11 -14 -14 7 -31 40 -31 25 0 43 -22 24 -28 -7 -2 -32
-21 -55 -42 -40 -34 -157 -90 -189 -90 -15 0 -59 -45 -76 -77 -16 -31 -25 -29
-66 15 -26 27 -35 44 -32 64 3 21 -1 28 -17 30 -17 2 -22 11 -24 43 -3 32 -1
38 9 28 20 -20 31 -15 19 8 -7 11 -18 18 -25 15 -10 -4 -15 7 -17 42 -5 72 8
272 20 317 6 22 18 69 28 105 31 123 110 188 234 194 55 3 77 9 93 24 23 21
51 28 124 31 36 1 45 -3 67 -31z m86 -50 c0 -13 -23 -5 -28 10 -2 7 2 10 12 6
9 -3 16 -11 16 -16z m-40 -859 c77 -29 90 -37 84 -53 -13 -34 -106 -40 -129
-9 -6 7 -39 16 -76 19 -62 6 -67 5 -74 -15 -8 -26 -37 -34 -95 -23 -43 7 -45
9 -45 42 0 31 4 36 35 47 19 7 82 12 140 12 83 1 116 -3 160 -20z m231 -349
c-3 -46 -27 -89 -48 -90 -23 0 -16 90 9 117 31 33 44 24 39 -27z"/>
<path d="M3132 3510 c-2 -41 -5 -47 -37 -64 -31 -17 -39 -18 -75 -6 -23 8 -60
11 -93 7 -59 -6 -140 -36 -119 -44 8 -3 19 0 25 6 13 13 87 15 87 2 0 -5 -16
-12 -36 -15 -50 -10 -101 -66 -60 -66 8 0 13 8 12 17 -2 29 33 28 44 -1 12
-33 38 -33 50 -1 5 14 15 25 23 25 19 0 36 -20 30 -36 -4 -11 7 -14 50 -14 61
0 74 9 82 61 4 19 11 50 16 69 6 19 9 51 6 70 -3 31 -4 30 -5 -10z"/>
<path d="M3220 3506 c0 -14 5 -26 10 -26 6 0 10 9 10 19 0 11 -4 23 -10 26 -6
4 -10 -5 -10 -19z"/>
<path d="M3300 3255 c7 -8 17 -15 22 -15 6 0 5 7 -2 15 -7 8 -17 15 -22 15 -6
0 -5 -7 2 -15z"/>
<path d="M3237 3080 c7 -55 7 -56 21 -26 9 21 8 29 -8 48 l-19 23 6 -45z"/>
<path d="M2986 3001 c-3 -5 1 -14 9 -21 12 -10 15 -10 15 3 0 19 -16 31 -24
18z"/>
<path d="M3300 2985 c0 -8 5 -15 10 -15 6 0 10 7 10 15 0 8 -4 15 -10 15 -5 0
-10 -7 -10 -15z"/>
<path d="M3491 4060 c23 -28 44 -49 45 -47 11 11 -17 64 -42 78 -47 28 -48 22
-3 -31z"/>
<path d="M3751 3734 c0 -11 3 -14 6 -6 3 7 2 16 -1 19 -3 4 -6 -2 -5 -13z"/>
<path d="M3781 3734 c0 -11 3 -14 6 -6 3 7 2 16 -1 19 -3 4 -6 -2 -5 -13z"/>
<path d="M3801 3674 c0 -11 3 -14 6 -6 3 7 2 16 -1 19 -3 4 -6 -2 -5 -13z"/>
<path d="M3770 3538 c-1 -51 25 -125 54 -155 17 -18 34 -47 37 -65 5 -23 6
-19 3 15 -4 53 -23 117 -36 117 -4 0 -8 12 -8 26 0 14 -4 23 -10 19 -6 -4 -17
9 -25 27 -8 18 -14 25 -15 16z"/>
<path d="M3821 3214 c-8 -27 -25 -63 -37 -79 l-23 -31 19 -32 c11 -18 20 -40
20 -50 0 -18 18 -42 32 -42 4 0 5 15 1 33 -5 26 -3 30 8 20 7 -7 19 -13 27
-13 7 0 12 6 9 13 -2 6 -9 11 -16 10 -6 -2 -20 15 -31 38 -20 39 -20 42 -5 89
9 27 15 59 13 71 -2 16 -7 7 -17 -27z"/>
<path d="M3852 3140 c0 -14 2 -19 5 -12 2 6 2 18 0 25 -3 6 -5 1 -5 -13z"/>
<path d="M4020 2950 c-8 -4 -36 -18 -62 -30 -31 -15 -48 -30 -51 -45 -4 -23
-2 -22 52 12 59 37 102 73 86 72 -6 0 -17 -4 -25 -9z"/>
<path d="M3810 2910 c0 -5 5 -10 10 -10 6 0 10 5 10 10 0 6 -4 10 -10 10 -5 0
-10 -4 -10 -10z"/>
<path d="M3816 2822 c-2 -4 2 -16 10 -27 8 -10 14 -14 14 -8 0 6 3 18 6 27 6
16 -20 24 -30 8z"/>
<path d="M3755 2810 c-3 -5 1 -10 10 -10 9 0 13 5 10 10 -3 6 -8 10 -10 10 -2
0 -7 -4 -10 -10z"/>
<path d="M3771 2754 c0 -11 3 -14 6 -6 3 7 2 16 -1 19 -3 4 -6 -2 -5 -13z"/>
<path d="M3729 2681 c-13 -11 -21 -23 -16 -27 12 -12 61 10 65 29 5 23 -20 22
-49 -2z"/>
<path d="M3751 2614 c0 -11 3 -14 6 -6 3 7 2 16 -1 19 -3 4 -6 -2 -5 -13z"/>
<path d="M4823 4292 c-56 -36 -58 -39 -43 -57 19 -23 56 -18 91 13 24 22 30
33 25 50 -9 28 -21 27 -73 -6z"/>
<path d="M1272 2560 c-9 -15 -7 -18 19 -22 33 -5 39 11 11 29 -15 9 -21 7 -30
-7z"/>
<path d="M5028 2566 c-27 -20 -23 -37 6 -26 13 5 27 6 31 2 4 -4 2 3 -4 16
-14 26 -11 25 -33 8z"/>
<path d="M5138 2543 c7 -3 16 -2 19 1 4 3 -2 6 -13 5 -11 0 -14 -3 -6 -6z"/>
<path d="M1598 2076 c-48 -21 -61 -42 -32 -53 10 -4 29 7 52 30 20 20 34 38
32 40 -3 2 -26 -6 -52 -17z"/>
<path d="M4580 2120 c-11 -11 -20 -24 -20 -29 0 -11 250 -190 266 -191 17 0
37 46 31 72 -9 35 -93 114 -151 143 -60 30 -99 32 -126 5z"/>
<path d="M1977 1753 c-49 -60 -49 -83 -2 -83 29 0 85 62 85 93 0 22 -16 47
-30 47 -4 0 -27 -26 -53 -57z"/>
<path d="M2386 1515 c-38 -81 -38 -100 -1 -100 61 0 99 109 49 142 -20 13 -23
11 -48 -42z"/>
<path d="M2850 1403 c0 -10 -3 -42 -6 -70 -6 -49 -5 -53 14 -53 11 0 28 10 36
22 21 30 21 104 0 112 -28 11 -44 6 -44 -11z"/>
<path d="M3360 1400 c-17 -17 -20 -33 -20 -102 0 -134 47 -240 99 -223 66 21
43 296 -28 334 -26 14 -28 14 -51 -9z"/>
</g>
</svg>
